<?xml version="1.0" encoding="UTF-8" standalone="no"?>
<!DOCTYPE svg PUBLIC "-//W3C//DTD SVG 1.1//EN"
 "http://www.w3.org/Graphics/SVG/1.1/DTD/svg11.dtd">
<!-- Generated by graphviz version 12.2.1 (20241206.2353)
 -->
<!-- Title: G Pages: 1 -->
<svg width="510pt" height="151pt"
 viewBox="0.00 0.00 510.20 150.95" xmlns="http://www.w3.org/2000/svg" xmlns:xlink="http://www.w3.org/1999/xlink">
<g id="graph0" class="graph" transform="scale(1 1) rotate(0) translate(21.6 129.35)">
<title>G</title>
<polygon fill="#111111" stroke="none" points="-21.6,21.6 -21.6,-129.35 488.6,-129.35 488.6,21.6 -21.6,21.6"/>
<!-- eslint&#45;plugins/index.js -->
<g id="node1" class="node">
<title>eslint&#45;plugins/index.js</title>
<path fill="none" stroke="#c6c5fe" d="M160.33,-23.75C160.33,-23.75 31.92,-23.75 31.92,-23.75 27.96,-23.75 24,-19.79 24,-15.83 24,-15.83 24,-7.92 24,-7.92 24,-3.96 27.96,0 31.92,0 31.92,0 160.33,0 160.33,0 164.29,0 168.25,-3.96 168.25,-7.92 168.25,-7.92 168.25,-15.83 168.25,-15.83 168.25,-19.79 164.29,-23.75 160.33,-23.75"/>
<text text-anchor="middle" x="96.12" y="-6.45" font-family="Arial" font-size="14.00" fill="#c6c5fe">eslint&#45;plugins/index.js</text>
</g>
<!-- eslint&#45;plugins/no&#45;snake&#45;case&#45;props.js -->
<g id="node2" class="node">
<title>eslint&#45;plugins/no&#45;snake&#45;case&#45;props.js</title>
<path fill="none" stroke="#cfffac" d="M459.08,-23.75C459.08,-23.75 236.17,-23.75 236.17,-23.75 232.21,-23.75 228.25,-19.79 228.25,-15.83 228.25,-15.83 228.25,-7.92 228.25,-7.92 228.25,-3.96 232.21,0 236.17,0 236.17,0 459.08,0 459.08,0 463.04,0 467,-3.96 467,-7.92 467,-7.92 467,-15.83 467,-15.83 467,-19.79 463.04,-23.75 459.08,-23.75"/>
<text text-anchor="middle" x="347.62" y="-6.45" font-family="Arial" font-size="14.00" fill="#cfffac">eslint&#45;plugins/no&#45;snake&#45;case&#45;props.js</text>
</g>
<!-- eslint&#45;plugins/index.js&#45;&gt;eslint&#45;plugins/no&#45;snake&#45;case&#45;props.js -->
<g id="edge1" class="edge">
<title>eslint&#45;plugins/index.js&#45;&gt;eslint&#45;plugins/no&#45;snake&#45;case&#45;props.js</title>
<path fill="none" stroke="#757575" d="M168.62,-11.88C183.71,-11.88 200.09,-11.88 216.58,-11.88"/>
<polygon fill="#757575" stroke="#757575" points="216.5,-15.38 226.5,-11.88 216.5,-8.38 216.5,-15.38"/>
</g>
<!-- scripts/analyze&#45;snake&#45;case.js -->
<g id="node3" class="node">
<title>scripts/analyze&#45;snake&#45;case.js</title>
<path fill="none" stroke="#cfffac" d="M184.33,-65.75C184.33,-65.75 7.92,-65.75 7.92,-65.75 3.96,-65.75 0,-61.79 0,-57.83 0,-57.83 0,-49.92 0,-49.92 0,-45.96 3.96,-42 7.92,-42 7.92,-42 184.33,-42 184.33,-42 188.29,-42 192.25,-45.96 192.25,-49.92 192.25,-49.92 192.25,-57.83 192.25,-57.83 192.25,-61.79 188.29,-65.75 184.33,-65.75"/>
<text text-anchor="middle" x="96.12" y="-48.45" font-family="Arial" font-size="14.00" fill="#cfffac">scripts/analyze&#45;snake&#45;case.js</text>
</g>
<!-- tests/UploadService.test.js -->
<g id="node4" class="node">
<title>tests/UploadService.test.js</title>
<path fill="none" stroke="#cfffac" d="M175.71,-107.75C175.71,-107.75 16.54,-107.75 16.54,-107.75 12.58,-107.75 8.62,-103.79 8.62,-99.83 8.62,-99.83 8.62,-91.92 8.62,-91.92 8.62,-87.96 12.58,-84 16.54,-84 16.54,-84 175.71,-84 175.71,-84 179.67,-84 183.62,-87.96 183.62,-91.92 183.62,-91.92 183.62,-99.83 183.62,-99.83 183.62,-103.79 179.67,-107.75 175.71,-107.75"/>
<text text-anchor="middle" x="96.12" y="-90.45" font-family="Arial" font-size="14.00" fill="#cfffac">tests/UploadService.test.js</text>
</g>
</g>
</svg>
